<svg viewBox="109 180 226 120" version="1.1" xmlns="http://www.w3.org/2000/svg" xmlns:xlink="http://www.w3.org/1999/xlink">
  <g id="Logo" stroke="none" stroke-width="1" fill="none" fill-rule="evenodd" transform="translate(109.000000, 180.000000)">
    <g id="Samurai" transform="translate(70.000000, 0.000000)" fill="#fff" opacity="0.5">
        <path d="M69.68,52.074 L69.611,51.976 L69.388,51.719 L69.153,51.344 L69.031,51.054 L68.945,50.695 L68.902,50.166 L68.76,49.99 L68.47,49.728 L68.249,49.658 L67.988,49.713 L67.514,50.032 L66.581,50.65 L66.581,50.803 C66.581,50.803 66.581,51.025 66.619,51.025 C66.662,51.025 66.738,51.137 66.738,51.137 L67.013,51.355 L67.385,51.816 L69.221,53.773 L69.555,54.08 L69.728,53.998 L69.68,52.074 Z M76.599,57.754 C76.764,58.339 77.056,60.202 75.293,61.169 C74.147,61.269 72.575,60.719 72.088,60.614 C71.399,60.509 66.922,58.479 66.401,57.996 C65.514,57.791 64.536,57.72 64.536,57.72 L63.811,57.405 L63.259,57.238 L62.962,57.169 L62.932,57.928 L62.766,58.58 L62.866,59.099 L62.8,60.268 L62.702,60.992 L62.344,61.371 L60.903,61.506 L60.811,61.96 L60.608,63.297 L60.512,64.303 L60.415,65.23 L60.512,65.367 L61.164,64.988 L61.459,64.918 L61.787,65.157 L62.015,65.64 L61.853,66.056 C61.853,66.056 60.675,67.537 59.855,69.637 C59.855,69.951 60.448,71.086 59.594,71.565 C59.338,71.773 59.14,72.116 59.14,72.116 L58.879,72.635 L58.78,73.013 L58.78,73.428 L58.713,73.906 L58.582,74.531 L58.552,75.289 L58.811,75.701 C58.811,75.701 61.394,77.628 64.894,78.217 C66.564,78.527 69.599,79.111 70.292,78.94 C70.488,79.285 70.779,81.043 69.993,81.454 C69.308,81.346 68.883,81.178 68.883,81.178 L67.997,81.144 L67.51,81.246 L66.693,82.454 C66.693,82.454 64.99,84.143 63.981,84.689 L63.981,85.001 C63.981,85.001 64.207,86.276 64.143,87.857 C64.143,88.068 64.629,89.137 64.629,89.137 L65.124,89.687 C65.124,89.687 66.335,90.617 66.296,91.582 C66.429,91.888 67.183,92.094 67.15,93.098 C67.12,94.475 67.054,95.197 67.054,95.197 L67.248,95.336 C67.248,95.336 68.395,95.164 68.26,95.849 C67.997,96.471 65.872,98.053 65.872,98.053 L65.481,98.297 L64.109,98.432 L63.682,98.642 L63.682,98.953 L63.619,99.467 L63.456,99.816 L63.192,100.193 C63.192,100.193 56,105.703 55.44,106.599 C55.412,107.013 55.541,107.184 55.541,107.184 L55.573,107.597 L55.642,108.256 L55.541,108.838 L55.245,109.113 L54.984,109.113 L54.954,109.426 L54.625,109.667 L54.265,109.873 L54.104,110.252 L54.364,110.732 C54.364,110.732 55.135,112.429 55.188,113.754 C55.084,114.961 55.084,115.239 55.084,115.239 L55.291,115.732 C55.291,115.732 56.916,116.615 57.071,117.388 C57.123,117.609 57.539,117.609 57.539,117.609 L57.758,118.162 L57.332,118.655 L56.601,118.711 C56.601,118.711 52.78,117.502 51.735,117.279 C50.532,116.945 49.173,115.517 49.173,115.517 L49.173,114.187 L49.173,113.531 L49.013,112.926 L46.241,109.783 L46.138,109.123 L46.188,108.845 L46.714,108.678 L47.13,108.678 C47.13,108.678 47.763,106.694 49.227,106.424 C49.378,105.926 49.378,105.481 49.378,105.481 L49.697,105.155 L49.902,104.876 L50.011,104.324 L50.27,103.944 L50.636,103.944 L51.059,103.887 L51.423,103.444 C51.423,103.444 54.613,97.822 54.667,96.996 L55.03,96.224 L55.188,95.781 L55.555,95.452 L56.132,95.344 L56.18,95.01 C56.18,95.01 55.343,94.628 54.715,93.304 C54.194,93.196 53.83,93.138 53.83,93.138 L53.562,92.644 C53.562,92.644 51.58,89.668 51.004,89.611 C50.847,89.224 50.691,89.111 50.691,89.111 L50.374,88.892 L50.118,88.453 L48.909,87.131 C48.909,87.131 47.13,88.892 46.505,89.056 C45.666,89.33 42.737,89.502 41.012,89.39 C38.812,89.224 32.536,86.965 32.325,87.017 C32.118,87.076 31.647,87.351 31.647,87.351 L29.448,89.668 C29.448,89.668 28.978,89.83 28.767,89.887 C28.56,89.937 27.408,89.937 27.408,89.937 L27.252,90.324 L27.093,90.99 L27.357,91.763 L27.305,92.474 L26.726,92.474 L24.738,91.647 L24.271,91.707 L24.006,91.978 L22.542,92.644 L22.176,92.974 L21.444,93.138 L20.815,93.084 L20.135,93.799 C20.135,93.799 17.418,98.095 13.594,100.416 C12.131,101.627 9.148,104.103 9.148,104.103 L9.092,104.82 L9.092,105.32 L8.945,105.594 L8.784,106.639 L8.731,107.191 L8.311,107.635 L7.838,108.017 L7.621,108.419 L7.776,109.445 L7.92,109.72 L7.883,110.154 L7.847,110.506 L7.963,111.335 L8.295,111.649 L8.408,112.354 C8.408,112.354 8.672,115.113 7.473,116.689 C6.166,118.138 3.625,119.836 2.204,119.679 C2.022,119.439 2.022,119.207 2.022,119.207 L1.796,118.969 L1.453,118.655 L1.271,118.065 L1.051,117.595 L0.226,116.527 L0,115.78 L0.037,115.034 C0.037,115.034 0.637,110.387 1.906,108.773 C1.978,108.811 2.09,108.538 2.09,108.538 L1.832,108.302 L1.569,108.028 L1.605,107.791 C1.605,107.791 2.358,105.742 3.287,105.115 C3.362,105.115 3.287,104.798 3.287,104.798 L3.102,104.447 L3.251,103.972 L3.44,103.814 L3.511,103.34 L3.813,102.91 L4.3,102.201 L4.485,101.922 L4.784,101.805 L5.158,101.765 L5.229,101.135 C5.229,101.135 9.194,92.948 11.472,91.019 C12.666,89.76 15.432,87.554 17.528,86.924 L17.639,86.572 L17.824,86.133 L18.052,85.939 L18.576,85.783 L19.245,85.706 L19.358,85.391 L19.694,85.312 L20.181,85.154 L20.215,84.644 L20.328,84.289 L20.366,83.617 L20.366,83.146 L20.517,82.513 L20.704,82.28 L21.04,82.361 L21.193,82.831 L21.452,83.146 L21.751,83.064 L22.085,82.715 L22.349,82.4 L22.499,82.085 L22.123,81.687 L22.085,81.336 L22.085,81.058 L23.392,80.232 L23.955,80.076 L24.293,79.842 L24.738,79.326 L25.258,78.895 L25.712,78.424 C25.712,78.424 22.832,76.65 23.026,71.417 C23.059,71.294 31.729,70.941 31.729,70.941 C31.729,70.941 34.269,67.752 34.791,67.398 C35.095,66.689 35.278,66.023 35.278,66.023 L35.388,65.155 C35.388,65.155 35.985,63.818 37.181,64.01 C37.26,63.894 37.818,62.872 38.867,63.384 C39.163,63.578 39.76,63.504 39.76,63.504 L40.327,63.467 L40.472,63.15 L40.398,59.406 L40.248,59.013 L40.175,57.953 L40.248,57.554 L40.547,57.322 L40.922,57.281 L41.332,57.36 L41.555,57.438 L41.781,57.478 L41.819,56.219 L41.481,56.062 L40.96,55.902 L40.327,55.943 L40.547,55.51 L40.698,55.035 L40.432,54.759 L40.285,54.213 C40.285,54.213 38.158,53.662 37.779,51.539 C37.26,51.456 36.844,51.849 36.254,51.137 C35.617,51.021 35.501,51.099 35.501,51.099 L35.317,51.18 C35.317,51.18 34.419,51.494 33.862,51.021 C33.41,51.058 33.15,51.099 33.15,51.099 C33.15,51.099 33.223,51.333 33.074,51.333 C32.923,51.333 32.438,51.414 32.438,51.414 L32.102,51.18 L31.878,50.781 L31.504,50.748 L31.055,51.18 L30.196,51.22 L29.821,50.943 L30.307,43.581 L30.53,43.107 C30.53,43.107 32.027,42.205 32.885,42.639 C33.746,43.031 34.607,43.464 34.566,43.621 C34.533,43.777 34.791,43.777 34.791,43.777 L34.942,43.972 C34.942,43.972 35.948,43.857 36.546,44.293 C37.297,44.211 37.931,44.252 37.931,44.252 L38.341,43.857 L38.377,43.306 L38.046,43.226 L38.009,42.597 L38.377,42.478 C38.377,42.478 39.721,39.491 42.489,39.018 C42.68,38.739 42.414,38.344 42.414,38.344 L40.358,34.526 L39.913,34.49 L39.35,34.293 L39.239,33.74 L39.465,33.23 L39.65,32.719 L39.875,32.365 L40.175,31.808 L43.123,28.819 L43.912,28.073 L44.434,27.518 L44.807,27.085 L45.108,26.772 L45.518,26.656 L45.705,26.101 L45.631,21.693 L44.955,21.458 L44.434,21.104 L44.434,20.827 C44.434,20.827 47.347,19.961 49.52,20.471 C49.592,20.711 49.628,21.144 49.628,21.144 L49.327,21.458 C49.327,21.458 47.943,21.772 47.458,23.74 C47.386,24.564 47.347,24.762 47.347,24.762 L47.501,24.963 L49.366,24.841 C49.366,24.841 52.205,23.897 53.399,21.063 C53.367,20.868 53.399,20.632 53.399,20.632 L53.215,20.315 L52.842,20.077 L52.953,19.766 L53.289,19.489 L56.842,17.718 L57.288,17.757 L59.156,17.757 L59.079,18.109 L58.711,18.225 C58.711,18.225 57.701,18.347 56.132,20.276 C54.674,22.554 53.854,24.963 53.14,25.471 C53.255,25.906 53.814,26.26 53.814,26.26 L54.527,26.851 L54.897,27.008 L55.162,27.008 L55.607,26.3 L56.165,25.355 L56.505,24.885 L56.764,24.727 L57.774,24.802 L58.265,24.916 L60.168,26.577 L60.463,26.811 L61.024,27.164 L61.364,27.559 L61.736,27.832 L63.641,29.41 L63.718,29.923 L63.942,30.352 L64.239,30.471 L64.312,30.944 L64.424,31.338 L64.354,31.731 L64.053,31.847 L63.604,32.046 L63.419,32.162 L62.257,32.243 C62.257,32.243 61.063,33.62 60.732,34.648 C60.579,35.826 60.239,42.756 60.239,42.756 L59.9,43.191 L59.68,43.581 L59.791,43.938 L60.13,44.131 L60.616,44.091 L61.135,43.777 L61.548,43.621 L61.885,43.543 L62.223,43.581 L62.748,43.581 L63.384,43.938 L64.092,44.447 L64.465,44.96 L64.801,45.076 L65.284,45.037 L65.695,44.68 L65.997,44.529 L66.371,44.408 L66.666,44.211 L66.894,43.938 L67.12,43.621 L67.38,43.031 L67.677,42.441 L67.973,41.967 L68.239,41.653 L68.575,41.492 L68.872,41.339 L68.872,40.945 L68.463,40.862 L68.197,40.589 L68.086,40.116 L68.126,39.88 L68.498,39.723 L68.54,39.404 L68.463,38.898 L68.423,38.426 L68.65,38.227 L68.724,37.834 L61.997,21.652 C61.997,21.652 55.384,7.246 53.18,5.162 L50.263,0.63 L50.153,0.041 L50.336,0 C50.336,0 55.457,4.686 57.923,9.688 C60.69,14.447 63.006,18.031 65.435,23.661 C67.903,29.056 71.338,37.597 71.338,37.597 L71.454,37.834 L71.712,37.873 L71.859,38.152 L71.902,38.505 L72.088,38.739 L72.423,38.855 L72.797,39.135 L73.094,39.331 L73.359,39.528 L73.807,39.404 L74.292,39.528 L74.592,39.723 L74.631,40.199 L74.444,40.589 L74.143,40.985 L74.292,41.297 C74.292,41.297 75.452,41.809 74.329,42.556 C74.218,42.831 74.368,43.031 74.368,43.031 L74.555,43.191 L74.631,43.621 L74.407,44.056 L74.071,44.408 L73.957,44.764 L74.329,44.803 L74.478,45.155 L74.329,45.511 L73.957,45.826 L73.694,46.139 L73.619,46.418 L73.694,46.73 L74.071,46.808 L74.178,47.202 L74.254,47.757 L74.218,48.107 C74.218,48.107 74.925,48.779 74.965,49.522 C75.115,49.726 75.375,50.431 75.115,51.099 C75.115,51.494 75.224,51.333 75.305,51.808 C75.266,52.48 74.965,52.914 74.965,52.914 L74.592,53.266 L74.368,53.465 L74.444,54.012 C74.444,54.012 76.341,57.169 76.599,57.754 L76.599,57.754 Z" id="Fill-114"></path>
    </g>
    <g id="Sengoku" transform="translate(0.000000, 40.000000)" fill="#fff">
        <path d="M18.504,57.28 C17.5919954,57.28 16.9200022,57.4479983 16.488,57.784 C13.6079856,57.784 11.6160055,58.0239976 10.512,58.504 C10.0799978,58.3599993 9.64800216,58.288 9.216,58.288 C8.4959964,58.288 7.48800648,58.5279976 6.192,59.008 C4.84799328,59.5360026 3.91200264,59.8 3.384,59.8 C2.6639964,59.8 1.99200312,59.4880031 1.368,58.864 C0.50399568,56.5119882 0.072,53.440019 0.072,49.648 C4.34402136,48.255993 6.8399964,47.2720029 7.56,46.696 C7.65600048,46.696 7.704,46.7439995 7.704,46.84 C7.704,46.8880002 7.60800096,47.007999 7.416,47.2 C7.1759988,47.3440007 7.056,47.4639995 7.056,47.56 C7.39200168,47.4639995 7.84799712,47.2000022 8.424,46.768 C9.00000288,46.4319983 9.47999808,46.1920007 9.864,46.048 C9.96000048,46.048 10.008,46.0000005 10.008,45.904 C10.008,45.711999 10.0319998,45.5920002 10.08,45.544 L13.032,43.6 C14.232006,42.7839959 15.1919964,42.1600022 15.912,41.728 C15.8639998,41.920001 15.6960014,42.1839983 15.408,42.52 C15.1679988,42.8560017 15.048,43.1919983 15.048,43.528 L15.048,43.744 C15.048,43.8400005 15.1199993,43.888 15.264,43.888 L15.624,43.888 C15.3359986,44.1760014 14.8080038,44.6079971 14.04,45.184 C13.3199964,45.7120026 12.7920017,46.1439983 12.456,46.48 L13.32,46.12 C13.7040019,45.9759993 13.9679993,45.8560005 14.112,45.76 C14.1600002,45.76 14.2079998,45.7839998 14.256,45.832 C14.256,45.8800002 14.160001,46.0239988 13.968,46.264 C13.775999,46.456001 13.68,46.5999995 13.68,46.696 C16.272013,45.9279962 17.472001,45.544 17.28,45.544 C17.1839995,45.7840012 16.8960024,46.1439976 16.416,46.624 C15.9359976,47.0560022 15.696,47.4159986 15.696,47.704 C15.696,47.8000005 15.7679993,47.9679988 15.912,48.208 C14.2319916,49.4560062 12.9840041,50.5599952 12.168,51.52 C21.960049,50.5599952 28.559983,49.2400084 31.968,47.56 L31.896,47.2 C31.896,47.007999 31.9439995,46.7440017 32.04,46.408 C32.1360005,46.0239981 32.184,45.7600007 32.184,45.616 C32.184,44.7039954 31.0560113,43.4080084 28.8,41.728 C28.6559993,41.6319995 28.4640012,41.5600002 28.224,41.512 L27.576,41.296 C27.0479974,41.0079986 26.3040048,40.5280034 25.344,39.856 L23.04,38.2 C13.4879522,32.0559693 8.18400528,26.0320295 7.128,20.128 C7.128,19.935999 7.05600072,19.6480019 6.912,19.264 L6.696,18.328 L6.768,15.304 C6.768,11.5599813 8.42398344,8.488012 11.736,6.088 C14.4720137,4.07198992 17.3519849,3.064 20.376,3.064 C23.8800175,3.064 26.1839945,3.75999304 27.288,5.152 C29.4000106,6.352006 32.6159784,10.1199683 36.936,16.456 L37.944,16.744 C37.9920002,17.4160034 38.2799974,18.0639969 38.808,18.688 C39.5280036,19.5520043 39.9359995,20.1039988 40.032,20.344 L40.032,20.632 C40.032,20.2479981 39.5040053,21.1119894 38.448,23.224 C38.3519995,23.416001 38.2560005,23.7519976 38.16,24.232 L37.944,25.24 C37.6559986,25.8160029 37.1280038,26.4879962 36.36,27.256 C35.4959957,28.1200043 34.9440012,28.7199983 34.704,29.056 C34.4159986,29.1040002 34.0080026,29.128 33.48,29.128 C32.1839935,29.128 30.9840055,28.8160031 29.88,28.192 C29.4479978,26.7039926 28.9440029,25.9120005 28.368,25.816 C27.6479964,23.7999899 26.3040098,21.4240137 24.336,18.688 C21.8879878,15.3279832 19.8480082,13.648 18.216,13.648 C16.9679938,13.648 15.9120043,14.151995 15.048,15.16 C14.1839957,16.168005 13.752,17.2959938 13.752,18.544 C13.752,19.552005 14.1599959,21.2799878 14.976,23.728 C15.984005,26.8960158 18.3359815,29.7999868 22.032,32.44 C22.9920048,33.1600036 24.5999887,34.215993 26.856,35.608 C28.9680106,36.9520067 30.5519947,38.0079962 31.608,38.776 C35.7840209,41.8480154 37.872,44.583988 37.872,46.984 C37.872,47.992005 37.1040077,49.9599854 35.568,52.888 C29.4719695,55.8640149 24.5760185,57.352 20.88,57.352 L18.504,57.28 Z M13.48,41.152 L13.552,41.296 C13.552,41.2479998 13.3120024,41.3919983 12.832,41.728 C10.1439866,43.6000094 8.0800072,45.1119942 6.64,46.264 C7.07200216,45.4959962 9.35197936,43.7920132 13.48,41.152 L13.48,41.152 Z M71.736,46.192 C71.736,46.3360007 71.831999,46.4559995 72.024,46.552 C72.1680007,46.6480005 72.24,46.7199998 72.24,46.768 C72.24,46.8160002 72.2160002,46.8639998 72.168,46.912 C60.8399434,52.1920264 54.6000058,55.0479978 53.448,55.48 C49.5599806,56.8240067 47.2560036,57.496 46.536,57.496 C44.0399875,57.496 42.3600043,55.9360156 41.496,52.816 C41.496,52.7199995 41.5199998,52.672 41.568,52.672 L41.928,52.816 C41.2079964,51.615994 40.848,50.0800094 40.848,48.208 C40.848,46.815993 41.0639978,44.920012 41.496,42.52 C42.0240026,39.6879858 42.3119998,37.9840029 42.36,37.408 L42.36,37.264 C42.36,37.1679995 42.4319993,37.0720005 42.576,36.976 C42.7200007,36.9279998 42.792,36.8560005 42.792,36.76 L42.792,36.472 C42.792,35.1759935 43.2719952,34.0480048 44.232,33.088 L44.232,32.224 C46.9200134,26.5599717 49.1279914,23.2960043 50.856,22.432 C52.0080058,21.8559971 53.087995,21.568 54.096,21.568 C55.9200091,21.568 57.935989,22.6239894 60.144,24.736 C62.8800137,27.3760132 64.6079964,28.8639983 65.328,29.2 C65.3760002,29.3440007 65.4719993,29.511999 65.616,29.704 C65.7600007,29.9440012 65.8559998,30.1359993 65.904,30.28 C65.5199981,30.8080026 65.328,31.3599971 65.328,31.936 C65.328,32.2720017 65.423999,32.8479959 65.616,33.664 C65.808001,34.4800041 65.904,35.1519974 65.904,35.68 L65.904,36.112 C65.7599993,37.4560067 64.6560103,38.5599957 62.592,39.424 C61.9199966,39.7120014 61.0320055,40.0239983 59.928,40.36 C58.4879928,40.7920022 57.6480012,41.0559995 57.408,41.152 C54.0479832,42.352006 51.9120046,43.2639969 51,43.888 C50.8559993,43.9360002 50.6400014,44.1519981 50.352,44.536 C50.0159983,44.9200019 49.7040014,45.1599995 49.416,45.256 C48.9359976,45.448001 48.4560024,45.544 47.976,45.544 C47.3519969,45.544 46.8720017,45.4240012 46.536,45.184 C46.6800007,45.2800005 46.4880026,44.8720046 45.96,43.96 C45.8159993,43.7199988 45.5520019,43.504001 45.168,43.312 C44.7839981,43.0719988 44.5440005,42.9040005 44.448,42.808 C43.8239969,45.5920139 43.512,47.2719971 43.512,47.848 C43.512,49.6720091 44.3039921,50.584 45.888,50.584 C50.7360242,50.584 56.4239674,48.5920199 62.952,44.608 C62.759999,44.5119995 62.4240024,44.464 61.944,44.464 C61.4639976,44.464 60.6960053,44.5839988 59.64,44.824 C58.5359945,45.0640012 57.7440024,45.184 57.264,45.184 C57.071999,44.991999 56.7840019,44.896 56.4,44.896 L54.744,45.04 C55.8000053,44.5119974 59.5199681,43.4320082 65.904,41.8 L69.864,40.792 C70.3440024,40.792 70.8239976,40.8639993 71.304,41.008 C71.1599993,40.9119995 71.7119938,41.7999906 72.96,43.672 C73.1040007,43.5279993 72.6960048,44.3199914 71.736,46.048 L71.736,46.192 Z M56.328,27.832 C54.5999914,24.7119844 53.8559988,23.2239993 54.096,23.368 C52.2719909,23.6080012 50.7120065,24.9999873 49.416,27.544 C49.0319981,28.3120038 48.5520029,29.391993 47.976,30.784 C47.3999971,32.2720074 46.9920012,33.2559976 46.752,33.736 C47.9040058,33.543999 49.4639902,33.2080024 51.432,32.728 L56.112,31.648 C56.3520012,30.9279964 56.6399983,30.3280024 56.976,29.848 C56.3999971,29.5119983 56.112,29.0800026 56.112,28.552 C56.112,28.4559995 56.1599995,28.3600005 56.256,28.264 C56.3040002,28.1679995 56.328,28.0720005 56.328,27.976 L56.328,27.832 Z M96.576,54.544 C96.2399983,54.544 95.8560022,54.9039964 95.424,55.624 C91.9199825,54.8079959 90.168,51.8800252 90.168,46.84 C90.168,46.3119974 90.2159995,45.4720058 90.312,44.32 C90.4080005,43.0239935 90.8399962,40.6480173 91.608,37.192 C92.2800034,34.2159851 92.616,31.8160091 92.616,29.992 L92.616,29.272 C89.6399851,31.6240118 87.2880086,35.0799772 85.56,39.64 C85.367999,40.0720022 85.1280014,40.8159947 84.84,41.872 C84.5999988,42.8320048 84.3600012,43.5759974 84.12,44.104 L81.744,49.288 C81.2159974,51.7840125 80.6640029,53.2719976 80.088,53.752 C79.7519983,53.8960007 79.3680022,53.968 78.936,53.968 C78.2159964,53.968 77.4720038,53.6800029 76.704,53.104 C76.6079995,52.6719978 76.3440022,52.0720038 75.912,51.304 C75.5279981,50.5359962 75.2880005,49.9360022 75.192,49.504 C75.0959995,48.8319966 75.048,48.3760012 75.048,48.136 C75.048,46.935994 75.551995,45.4000094 76.56,43.528 C77.5200048,41.6559906 78,40.1440058 78,38.992 L78,38.776 C74.8319842,36.2799875 72.744005,34.1680086 71.736,32.44 C74.6640146,28.0239779 76.6079952,25.3840043 77.568,24.52 C79.776011,22.4559897 81.7919909,21.424 83.616,21.424 C83.8560012,21.424 84.1679981,21.4719995 84.552,21.568 C84.5039998,21.568 85.4159906,22.6959887 87.288,24.952 C90.5520163,21.9759851 92.879993,20.488 94.272,20.488 L94.92,20.56 C95.4960029,20.6560005 96.1679962,20.9439976 96.936,21.424 C97.944005,22.1440036 98.5679988,22.5519995 98.808,22.648 C98.9520007,23.1280024 99.3599966,23.8479952 100.032,24.808 C100.608003,25.6720043 100.92,26.3919971 100.968,26.968 L100.968,27.328 C100.968,27.1839993 100.656003,28.6719844 100.032,31.792 C98.2079909,40.000041 97.2480005,44.7519935 97.152,46.048 C98.0640046,45.1359954 99.2879923,43.7920089 100.824,42.016 L104.496,37.696 C104.832002,37.1679974 105.119999,36.904 105.36,36.904 L105.432,36.904 C104.567996,38.5840084 103.12801,41.5119791 101.112,45.688 C99.2879909,49.480019 97.8240055,52.4319894 96.72,54.544 L96.576,54.544 Z M129.568,38.128 C128.703996,38.6080024 127.360009,39.4719938 125.536,40.72 C123.51999,42.0640067 122.248003,43.3119942 121.72,44.464 C121.335998,45.3280043 121.144,46.8879887 121.144,49.144 C121.144,53.3680211 120.640005,56.1039938 119.632,57.352 C118.143993,59.1760091 115.144023,60.7599933 110.632,62.104 C104.775971,63.8320086 101.296006,64.9839971 100.192,65.56 C100.144,65.2239983 99.9280019,64.456006 99.544,63.256 C99.2079983,62.2959952 99.04,61.5280029 99.04,60.952 C99.04,60.3279969 99.1599988,59.8000022 99.4,59.368 C99.6400012,58.9359978 101.271985,57.5440118 104.296,55.192 C105.832008,53.9439938 108.303983,51.8080151 111.712,48.784 C114.880016,45.9999861 117.279992,43.9600065 118.912,42.664 C118.96,41.6079947 119.175998,40.1200096 119.56,38.2 C119.031997,38.3440007 118.024007,38.9919942 116.536,40.144 C115.143993,41.152005 113.944005,41.7279993 112.936,41.872 L112.216,41.944 C110.19999,41.944 108.832004,41.3200062 108.112,40.072 C107.967999,39.7359983 107.872,39.3040026 107.824,38.776 C107.824,38.1519969 107.776,37.6960014 107.68,37.408 C107.584,37.1199986 107.296002,36.6640031 106.816,36.04 C106.431998,35.5119974 106.216,34.9600029 106.168,34.384 C106.12,34.0959986 106.096,33.6880026 106.096,33.16 C106.096,29.7999832 107.175989,26.2720185 109.336,22.576 C112.168014,17.7279758 115.863977,15.304 120.424,15.304 C121.000003,15.304 121.431999,15.3279998 121.72,15.376 C122.920006,15.5200007 125.967976,17.5119808 130.864,21.352 C130.912,21.544001 131.175998,22.1199952 131.656,23.08 C131.319998,23.6080026 130.840003,24.7119916 130.216,26.392 C129.735998,27.7360067 129.184003,28.6959971 128.56,29.272 C128.415999,29.4160007 128.152002,29.5599993 127.768,29.704 L126.976,30.136 C125.199991,31.2880058 123.856005,33.9039796 122.944,37.984 C124.432007,37.1199957 126.375988,35.8720082 128.776,34.24 L134.68,30.28 C134.487999,30.5200012 133.504009,31.335993 131.728,32.728 C130.431994,33.7840053 129.568002,34.815995 129.136,35.824 L129.568,37.696 L129.568,38.128 Z M119.424,22.36 C118.703996,21.8319974 118.152002,21.568 117.768,21.568 C116.135992,21.568 114.432009,22.5759899 112.656,24.592 C110.543989,26.8960115 109.488,29.6319842 109.488,32.8 C109.488,33.1360017 109.536,33.7359957 109.632,34.6 C112.896016,32.4879894 116.735978,28.7200271 121.152,23.296 C120.767998,23.2479998 120.192004,22.9360029 119.424,22.36 L119.424,22.36 Z M104.376,58.504 C107.496016,57.7839964 109.391997,57.4000002 110.064,57.352 C110.400002,57.1119988 110.927996,56.896001 111.648,56.704 C112.320003,56.4639988 112.799999,56.248001 113.088,56.056 C115.05601,54.8079938 116.303997,51.880023 116.832,47.272 C116.832,47.1759995 116.784,47.128 116.688,47.128 C110.63997,52.1680252 106.536011,55.9599873 104.376,58.504 L104.376,58.504 Z M157.952,33.088 C158.672004,34.5760074 159.032,36.3999892 159.032,38.56 C159.032,44.9920322 157.760013,49.8159839 155.216,53.032 C153.631992,55.1440106 150.704021,56.2 146.432,56.2 C142.831982,56.2 139.736013,54.6400156 137.144,51.52 C134.983989,48.8799868 133.904,46.2880127 133.904,43.744 L133.904,42.232 C133.904,42.0879993 133.856,41.8480017 133.76,41.512 C133.664,41.2239986 133.616,41.0080007 133.616,40.864 L133.616,40.72 C133.616,39.6639947 134.239994,37.6240151 135.488,34.6 C137.168008,30.5199796 139.231988,27.2320125 141.68,24.736 C142.400004,24.4959988 143.263995,23.8960048 144.272,22.936 C145.232005,22.0239954 146.071996,21.4480012 146.792,21.208 C147.176002,21.5920019 144.872025,19.5280226 139.88,15.016 C141.368007,15.3040014 143.047991,16.0719938 144.92,17.32 C147.560013,19.0480086 149.119998,20.0319988 149.6,20.272 C150.032002,20.079999 150.463998,19.984 150.896,19.984 C151.712004,19.984 152.503996,20.3679962 153.272,21.136 C153.272,21.4720017 153.367999,21.9279971 153.56,22.504 C153.752001,22.9840024 153.848,23.3919983 153.848,23.728 C153.848,23.920001 153.752001,24.2319978 153.56,24.664 C153.367999,25.0960022 153.272,25.4319988 153.272,25.672 C153.32,26.3920036 153.727996,27.255995 154.496,28.264 C155.456005,29.464006 156.007999,30.2799978 156.152,30.712 C156.2,30.8560007 156.248,31.1439978 156.296,31.576 C156.296,31.9120017 156.32,32.1519993 156.368,32.296 C156.416,32.488001 156.559999,32.7279986 156.8,33.016 C157.040001,33.3040014 157.184,33.5199993 157.232,33.664 C157.184,33.471999 157.351998,34.6959868 157.736,37.336 C158.120002,37.143999 158.312,36.7600029 158.312,36.184 C158.312,35.9439988 158.264,35.4880034 158.168,34.816 C158.023999,34.1919969 157.952,33.7360014 157.952,33.448 L157.952,33.088 Z M146.712,49 C149.352013,49 151.487992,47.5840142 153.12,44.752 C154.560007,42.3039878 155.28,39.6160146 155.28,36.688 C155.28,33.9999866 154.656006,31.7200094 153.408,29.848 C153.408,29.7519995 153.384,29.704 153.336,29.704 C152.759997,30.4240036 151.728007,31.5039928 150.24,32.944 C148.607992,34.5280079 147.432004,35.7279959 146.712,36.544 C143.975986,39.6640156 142.608,42.7359849 142.608,45.76 C142.608,46.6240043 142.656,47.2719978 142.752,47.704 C143.856006,48.5680043 145.175992,49 146.712,49 L146.712,49 Z M167.904,58.576 C167.856,58.6240002 167.784,58.648 167.688,58.648 L166.824,57.784 C164.471988,54.9999861 163.296,51.208024 163.296,46.408 C163.296,40.5519707 164.351989,33.0640456 166.464,23.944 C168.816012,13.7679491 171.551984,6.25602424 174.672,1.408 C175.104002,1.408 175.703996,1.31200096 176.472,1.12 C177.288004,0.8799988 177.863998,0.76 178.2,0.76 L178.416,0.76 C180.096008,0.76 181.367996,1.04799712 182.232,1.624 C183.384006,2.29600336 183.96,4.35998272 183.96,7.816 C183.96,10.024011 183.576004,11.3439978 182.808,11.776 L182.448,11.776 C180.671991,11.776 179.304005,12.3519942 178.344,13.504 C175.511986,16.8640168 173.400007,22.1919635 172.008,29.488 C174.02401,28.7679964 176.99998,27.304011 180.936,25.096 C184.584018,22.9839894 187.631988,21.5920034 190.08,20.92 L190.08,20.992 C190.08,21.0400002 189.912002,21.2319983 189.576,21.568 C185.735981,24.4480144 183.792,26.2479964 183.744,26.968 L183.744,27.184 C183.744,27.7120026 183.983998,28.4559952 184.464,29.416 C184.992003,30.4720053 185.28,31.2639974 185.328,31.792 C185.424,31.6959995 181.536039,34.047976 173.664,38.848 C176.352013,43.3120223 178.415993,46.143994 179.856,47.344 C183.84002,40.4799657 187.247986,36.6400041 190.08,35.824 L190.08,35.968 C190.08,36.1120007 189.792003,36.5199966 189.216,37.192 C184.655977,43.2880305 182.376,47.1519918 182.376,48.784 C182.376,49.6000041 182.879995,50.6799933 183.888,52.024 C184.896005,53.3200065 185.4,54.3999957 185.4,55.264 C185.4,56.8480079 184.44001,57.64 182.52,57.64 C181.223994,57.64 180.168004,57.3040034 179.352,56.632 C176.759987,54.5679897 174.43201,51.5200202 172.368,47.488 C170.927993,44.6079856 169.824004,43.0480012 169.056,42.808 C167.999995,45.3040125 167.472,48.8799767 167.472,53.536 C167.472,54.1120029 167.543999,54.9279947 167.688,55.984 C167.832001,57.0400053 167.904,57.8079976 167.904,58.288 L167.904,58.576 Z M199.448,54.976 C197.911992,54.976 196.472007,54.5440043 195.128,53.68 C193.06399,52.3839935 192.032,50.3200142 192.032,47.488 C192.032,43.9359822 192.847992,39.1360302 194.48,33.088 C191.839987,31.3119911 190.472,30.3520007 190.376,30.208 C190.520001,27.807988 192.055985,25.5760103 194.984,23.512 C197.720014,21.5439902 200.359987,20.56 202.904,20.56 C204.296007,20.56 205.207998,20.9919957 205.64,21.856 L205.856,23.296 C205.904,23.5360012 206.191997,24.2319942 206.72,25.384 C207.152002,26.3440048 207.368,27.1359969 207.368,27.76 C207.32,28.6720046 206.792005,29.631995 205.784,30.64 C204.631994,31.7440055 203.960001,32.6559964 203.768,33.376 C199.207977,39.184029 196.928,43.9359815 196.928,47.632 C196.928,50.4640142 197.719992,52.2879959 199.304,53.104 C205.20803,49.311981 208.687995,41.6800574 209.744,30.208 C210.128002,25.8399782 211.039993,23.056006 212.48,21.856 L215.072,21.64 C215.840004,21.64 216.535997,21.7839986 217.16,22.072 C217.496002,22.5040022 217.975997,23.415993 218.6,24.808 C219.128003,26.0560062 219.655997,26.9199976 220.184,27.4 C220.136,28.3120046 219.656005,29.2239954 218.744,30.136 C217.495994,31.336006 216.776001,32.1039983 216.584,32.44 C216.247998,33.0640031 215.984001,34.3359904 215.792,36.256 C215.647999,38.0320089 215.312003,39.3039962 214.784,40.072 C214.832,40.264001 214.856,40.4799988 214.856,40.72 C214.856,41.0080014 214.712001,41.4399971 214.424,42.016 C214.472,42.208001 214.496,42.4959981 214.496,42.88 L214.424,44.608 C214.424,45.2320031 214.543999,45.7359981 214.784,46.12 C219.632024,40.9359741 223.279988,37.2880106 225.728,35.176 C225.295998,35.9920041 223.664014,38.4399796 220.832,42.52 C220.832,43.1920034 220.808,43.5519998 220.76,43.6 C219.367993,45.808011 218.672,46.9359998 218.672,46.984 C218.431999,47.176001 217.35201,48.8799839 215.432,52.096 C214.327994,53.8720089 213.320005,54.76 212.408,54.76 C211.351995,54.76 210.368005,54.2080055 209.456,53.104 C208.591996,52.0479947 208.112,50.9920053 208.016,49.936 C203.98398,53.1520161 201.320006,54.8319993 200.024,54.976 L199.448,54.976 Z"></path>
    </g>
  </g>
</svg>
