<svg width="74px" height="23px" viewBox="0 1 74 23" version="1.1" xmlns="http://www.w3.org/2000/svg" xmlns:xlink="http://www.w3.org/1999/xlink">
  <path d="M6.168,20.76 C5.86399848,20.76 5.64000072,20.8159994 5.496,20.928 C4.5359952,20.928 3.87200184,21.0079992 3.504,21.168 C3.35999928,21.1199998 3.21600072,21.096 3.072,21.096 C2.8319988,21.096 2.49600216,21.1759992 2.064,21.336 C1.61599776,21.5120009 1.30400088,21.6 1.128,21.6 C0.8879988,21.6 0.66400104,21.496001 0.456,21.288 C0.16799856,20.5039961 0.024,19.4800063 0.024,18.216 C1.44800712,17.7519977 2.2799988,17.424001 2.52,17.232 C2.55200016,17.232 2.568,17.2479998 2.568,17.28 C2.568,17.2960001 2.53600032,17.3359997 2.472,17.4 C2.3919996,17.4480002 2.352,17.4879998 2.352,17.52 C2.46400056,17.4879998 2.61599904,17.4000007 2.808,17.256 C3.00000096,17.1439994 3.15999936,17.0640002 3.288,17.016 C3.32000016,17.016 3.336,17.0000002 3.336,16.968 C3.336,16.9039997 3.34399992,16.8640001 3.36,16.848 L4.344,16.2 C4.744002,15.9279986 5.0639988,15.7200007 5.304,15.576 C5.28799992,15.6400003 5.23200048,15.7279994 5.136,15.84 C5.0559996,15.9520006 5.016,16.0639994 5.016,16.176 L5.016,16.248 C5.016,16.2800002 5.03999976,16.296 5.088,16.296 L5.208,16.296 C5.11199952,16.3920005 4.93600128,16.535999 4.68,16.728 C4.4399988,16.9040009 4.26400056,17.0479994 4.152,17.16 L4.44,17.04 C4.56800064,16.9919998 4.65599976,16.9520002 4.704,16.92 C4.72000008,16.92 4.73599992,16.9279999 4.752,16.944 C4.752,16.9600001 4.72000032,17.0079996 4.656,17.088 C4.59199968,17.1520003 4.56,17.1999998 4.56,17.232 C5.42400432,16.9759987 5.82400032,16.848 5.76,16.848 C5.72799984,16.9280004 5.6320008,17.0479992 5.472,17.208 C5.3119992,17.3520007 5.232,17.4719995 5.232,17.568 C5.232,17.6000002 5.25599976,17.6559996 5.304,17.736 C4.7439972,18.1520021 4.32800136,18.5199984 4.056,18.84 C7.32001632,18.5199984 9.51999432,18.0800028 10.656,17.52 L10.632,17.4 C10.632,17.3359997 10.6479998,17.2480006 10.68,17.136 C10.7120002,17.0079994 10.728,16.9200002 10.728,16.872 C10.728,16.5679985 10.3520038,16.1360028 9.6,15.576 C9.55199976,15.5439998 9.4880004,15.5200001 9.408,15.504 L9.192,15.432 C9.01599912,15.3359995 8.7680016,15.1760011 8.448,14.952 L7.68,14.4 C4.49598408,12.3519898 2.72800176,10.3440098 2.376,8.376 C2.376,8.31199968 2.35200024,8.21600064 2.304,8.088 L2.232,7.776 L2.256,6.768 C2.256,5.51999376 2.80799448,4.496004 3.912,3.696 C4.82400456,3.02399664 5.78399496,2.688 6.792,2.688 C7.96000584,2.688 8.72799816,2.91999768 9.096,3.384 C9.80000352,3.784002 10.8719928,5.03998944 12.312,7.152 L12.648,7.248 C12.6640001,7.47200112 12.7599991,7.68799896 12.936,7.896 C13.1760012,8.18400144 13.3119998,8.3679996 13.344,8.448 L13.344,8.544 C13.344,8.41599936 13.1680018,8.70399648 12.816,9.408 C12.7839998,9.47200032 12.7520002,9.5839992 12.72,9.744 L12.648,10.08 C12.5519995,10.272001 12.3760013,10.4959987 12.12,10.752 C11.8319986,11.0400014 11.6480004,11.2399994 11.568,11.352 C11.4719995,11.3680001 11.3360009,11.376 11.16,11.376 C10.7279978,11.376 10.3280018,11.272001 9.96,11.064 C9.81599928,10.5679975 9.64800096,10.3040002 9.456,10.272 C9.2159988,9.59999664 8.76800328,8.80800456 8.112,7.896 C7.29599592,6.7759944 6.61600272,6.216 6.072,6.216 C5.65599792,6.216 5.30400144,6.38399832 5.016,6.72 C4.72799856,7.05600168 4.584,7.43199792 4.584,7.848 C4.584,8.18400168 4.71999864,8.75999592 4.992,9.576 C5.32800168,10.6320053 6.11199384,11.5999956 7.344,12.48 C7.6640016,12.7200012 8.19999624,13.0719977 8.952,13.536 C9.65600352,13.9840022 10.1839982,14.3359987 10.536,14.592 C11.928007,15.6160051 12.624,16.527996 12.624,17.328 C12.624,17.6640017 12.3680026,18.3199951 11.856,19.296 C9.82398984,20.288005 8.19200616,20.784 6.96,20.784 L6.168,20.76 Z M5.16,15.384 L5.184,15.432 C5.184,15.4159999 5.1040008,15.4639994 4.944,15.576 C4.04799552,16.2000031 3.3600024,16.7039981 2.88,17.088 C3.02400072,16.8319987 3.78399312,16.2640044 5.16,15.384 L5.16,15.384 Z M24.112,17.064 C24.112,17.1120002 24.1439997,17.1519998 24.208,17.184 C24.2560002,17.2160002 24.28,17.2399999 24.28,17.256 C24.28,17.2720001 24.2720001,17.2879999 24.256,17.304 C20.4799811,19.0640088 18.4000019,20.0159993 18.016,20.16 C16.7199935,20.6080022 15.9520012,20.832 15.712,20.832 C14.8799958,20.832 14.3200014,20.3120052 14.032,19.272 C14.032,19.2399998 14.0399999,19.224 14.056,19.224 L14.176,19.272 C13.9359988,18.871998 13.816,18.3600031 13.816,17.736 C13.816,17.2719977 13.8879993,16.640004 14.032,15.84 C14.2080009,14.8959953 14.3039999,14.328001 14.32,14.136 L14.32,14.088 C14.32,14.0559998 14.3439997,14.0240002 14.392,13.992 C14.4400002,13.9759999 14.464,13.9520002 14.464,13.92 L14.464,13.824 C14.464,13.3919978 14.6239984,13.0160016 14.944,12.696 L14.944,12.408 C15.8400045,10.5199906 16.5759971,9.43200144 17.152,9.144 C17.5360019,8.95199904 17.8959983,8.856 18.232,8.856 C18.840003,8.856 19.5119963,9.20799648 20.248,9.912 C21.1600045,10.7920044 21.7359988,11.2879994 21.976,11.4 C21.9920001,11.4480002 22.0239997,11.5039997 22.072,11.568 C22.1200002,11.6480004 22.1519999,11.7119998 22.168,11.76 C22.0399993,11.9360009 21.976,12.119999 21.976,12.312 C21.976,12.4240006 22.0079997,12.6159986 22.072,12.888 C22.1360003,13.1600014 22.168,13.3839991 22.168,13.56 L22.168,13.704 C22.1199997,14.1520022 21.7520034,14.5199986 21.064,14.808 C20.8399989,14.9040005 20.5440018,15.0079994 20.176,15.12 C19.6959976,15.2640007 19.4160004,15.3519998 19.336,15.384 C18.2159944,15.784002 17.5040015,16.087999 17.2,16.296 C17.1519997,16.3120001 17.0800005,16.3839994 16.984,16.512 C16.8719994,16.6400006 16.7680005,16.7199998 16.672,16.752 C16.5119992,16.8160003 16.3520008,16.848 16.192,16.848 C15.9839989,16.848 15.8240005,16.8080004 15.712,16.728 C15.7600002,16.7600002 15.6960009,16.6240015 15.52,16.32 C15.4719997,16.2399996 15.3840006,16.1680003 15.256,16.104 C15.1279993,16.0239996 15.0480001,15.9680002 15.016,15.936 C14.8079989,16.8640046 14.704,17.423999 14.704,17.616 C14.704,18.224003 14.9679973,18.528 15.496,18.528 C17.1120081,18.528 19.0079891,17.8640066 21.184,16.536 C21.1199997,16.5039998 21.0080008,16.488 20.848,16.488 C20.6879992,16.488 20.4320017,16.5279996 20.08,16.608 C19.7119981,16.6880004 19.4480008,16.728 19.288,16.728 C19.2239997,16.6639997 19.1280006,16.632 19,16.632 L18.448,16.68 C18.8000017,16.5039991 20.0399893,16.1440027 22.168,15.6 L23.488,15.264 C23.6480008,15.264 23.8079992,15.2879998 23.968,15.336 C23.9199997,15.3039998 24.1039979,15.5999969 24.52,16.224 C24.5680002,16.1759998 24.4320016,16.4399971 24.112,17.016 L24.112,17.064 Z M18.976,10.944 C18.3999971,9.9039948 18.1519996,9.40799976 18.232,9.456 C17.6239969,9.5360004 17.1040021,9.99999576 16.672,10.848 C16.5439993,11.1040013 16.3840009,11.4639977 16.192,11.928 C15.999999,12.4240025 15.8640004,12.7519992 15.784,12.912 C16.1680019,12.8479997 16.6879967,12.7360008 17.344,12.576 L18.904,12.216 C18.9840004,11.9759988 19.0799994,11.7760008 19.192,11.616 C18.999999,11.5039994 18.904,11.3600009 18.904,11.184 C18.904,11.1519998 18.9199998,11.1200002 18.952,11.088 C18.9680001,11.0559998 18.976,11.0240002 18.976,10.992 L18.976,10.944 Z M31.592,19.848 C31.4799994,19.848 31.3520007,19.9679988 31.208,20.208 C30.0399941,19.9359986 29.456,18.9600084 29.456,17.28 C29.456,17.1039991 29.4719998,16.8240019 29.504,16.44 C29.5360001,16.0079978 29.6799987,15.2160058 29.936,14.064 C30.1600011,13.071995 30.272,12.272003 30.272,11.664 L30.272,11.424 C29.279995,12.2080039 28.4960029,13.3599924 27.92,14.88 C27.8559997,15.0240007 27.7760005,15.2719982 27.68,15.624 C27.5999996,15.9440016 27.5200004,16.1919991 27.44,16.368 L26.648,18.096 C26.4719991,18.9280042 26.2880009,19.4239992 26.096,19.584 C25.9839994,19.6320002 25.8560007,19.656 25.712,19.656 C25.4719988,19.656 25.2240013,19.560001 24.968,19.368 C24.9359998,19.2239993 24.8480007,19.0240013 24.704,18.768 C24.5759993,18.5119987 24.4960001,18.3120007 24.464,18.168 C24.4319998,17.9439989 24.416,17.7920004 24.416,17.712 C24.416,17.311998 24.5839983,16.8000031 24.92,16.176 C25.2400016,15.5519969 25.4,15.0480019 25.4,14.664 L25.4,14.592 C24.3439947,13.7599958 23.6480017,13.0560029 23.312,12.48 C24.2880049,11.0079926 24.9359984,10.1280014 25.256,9.84 C25.9920037,9.15199656 26.6639969,8.808 27.272,8.808 C27.3520004,8.808 27.4559993,8.82399984 27.584,8.856 C27.5679999,8.856 27.8719969,9.23199624 28.496,9.984 C29.5840054,8.99199504 30.3599977,8.496 30.824,8.496 L31.04,8.52 C31.2320009,8.55200016 31.4559987,8.6479992 31.712,8.808 C32.0480017,9.0480012 32.2559996,9.18399984 32.336,9.216 C32.3840002,9.3760008 32.5199989,9.6159984 32.744,9.936 C32.9360009,10.2240014 33.0399999,10.463999 33.056,10.656 L33.056,10.776 C33.056,10.7279998 32.952001,11.2239948 32.744,12.264 C32.1359969,15.0000137 31.8160001,16.5839978 31.784,17.016 C32.0880015,16.7119985 32.4959974,16.264003 33.008,15.672 L34.232,14.232 C34.3440005,14.0559991 34.4399996,13.968 34.52,13.968 L34.544,13.968 C34.2559985,14.5280028 33.7760033,15.503993 33.104,16.896 C32.4959969,18.1600063 32.0080018,19.1439965 31.64,19.848 L31.592,19.848 Z M42.456,14.376 C42.1679985,14.5360008 41.720003,14.8239979 41.112,15.24 C40.4399966,15.6880022 40.0160008,16.1039981 39.84,16.488 C39.7119993,16.7760014 39.648,17.2959962 39.648,18.048 C39.648,19.456007 39.4800016,20.3679979 39.144,20.784 C38.6479975,21.392003 37.6480075,21.9199978 36.144,22.368 C34.1919902,22.9440029 33.0320018,23.327999 32.664,23.52 C32.6479999,23.4079994 32.5760006,23.152002 32.448,22.752 C32.3359994,22.4319984 32.28,22.176001 32.28,21.984 C32.28,21.775999 32.3199996,21.6000007 32.4,21.456 C32.4800004,21.3119993 33.0239949,20.8480039 34.032,20.064 C34.5440025,19.6479979 35.3679943,18.936005 36.504,17.928 C37.5600052,16.9999954 38.3599972,16.3200022 38.904,15.888 C38.92,15.5359982 38.9919993,15.0400032 39.12,14.4 C38.9439991,14.4480002 38.6080024,14.6639981 38.112,15.048 C37.6479976,15.3840017 37.2480016,15.5759998 36.912,15.624 L36.672,15.648 C35.9999966,15.648 35.5440012,15.4400021 35.304,15.024 C35.2559997,14.9119994 35.224,14.7680009 35.208,14.592 C35.208,14.383999 35.1920001,14.2320005 35.16,14.136 C35.1279998,14.0399995 35.0320008,13.888001 34.872,13.68 C34.7439993,13.5039991 34.672,13.320001 34.656,13.128 C34.6399999,13.0319995 34.632,12.8960009 34.632,12.72 C34.632,11.5999944 34.9919964,10.4240062 35.712,9.192 C36.6560047,7.57599192 37.8879924,6.768 39.408,6.768 C39.6000009,6.768 39.7439995,6.77599992 39.84,6.792 C40.240002,6.84000024 41.2559918,7.5039936 42.888,8.784 C42.904,8.84800032 42.9919992,9.0399984 43.152,9.36 C43.0399994,9.53600088 42.880001,9.9039972 42.672,10.464 C42.5119992,10.9120022 42.328001,11.231999 42.12,11.424 C42.0719997,11.4720002 41.9840006,11.5199998 41.856,11.568 L41.592,11.712 C40.999997,12.0960019 40.5520015,12.9679932 40.248,14.328 C40.7440024,14.0399986 41.391996,13.6240027 42.192,13.08 L44.16,11.76 C44.0959996,11.8400004 43.7680029,12.1119977 43.176,12.576 C42.7439978,12.9280018 42.4560007,13.2719983 42.312,13.608 L42.456,14.232 L42.456,14.376 Z M39.408,9.12 C39.1679988,8.94399912 38.9840006,8.856 38.856,8.856 C38.3119972,8.856 37.7440029,9.19199664 37.152,9.864 C36.4479964,10.6320038 36.096,11.5439947 36.096,12.6 C36.096,12.7120006 36.1119998,12.9119986 36.144,13.2 C37.2320054,12.4959965 38.5119926,11.240009 39.984,9.432 C39.8559993,9.41599992 39.6640012,9.31200096 39.408,9.12 L39.408,9.12 Z M34.392,21.168 C35.4320052,20.9279988 36.0639988,20.8000001 36.288,20.784 C36.4000005,20.7039996 36.5759988,20.6320003 36.816,20.568 C37.0400011,20.4879996 37.1999995,20.4160003 37.296,20.352 C37.9520032,19.9359979 38.3679991,18.9600077 38.544,17.424 C38.544,17.3919998 38.5280001,17.376 38.496,17.376 C36.4799899,19.0560084 35.1120036,20.3199958 34.392,21.168 L34.392,21.168 Z M51.784,12.696 C52.0240012,13.1920025 52.144,13.7999964 52.144,14.52 C52.144,16.6640107 51.7200042,18.2719946 50.872,19.344 C50.3439973,20.0480035 49.3680071,20.4 47.944,20.4 C46.743994,20.4 45.7120043,19.8800052 44.848,18.84 C44.1279964,17.9599956 43.768,17.0960042 43.768,16.248 L43.768,15.744 C43.768,15.6959998 43.7520001,15.6160006 43.72,15.504 C43.6879998,15.4079995 43.672,15.3360002 43.672,15.288 L43.672,15.24 C43.672,14.8879982 43.8799979,14.208005 44.296,13.2 C44.8560028,11.8399932 45.5439959,10.7440042 46.36,9.912 C46.6000012,9.8319996 46.8879983,9.6320016 47.224,9.312 C47.5440016,9.00799848 47.8239988,8.8160004 48.064,8.736 C48.1920006,8.86400064 47.4240083,8.17600752 45.76,6.672 C46.2560024,6.76800048 46.8159968,7.02399792 47.44,7.44 C48.3200044,8.01600288 48.8399992,8.3439996 49,8.424 C49.1440007,8.35999968 49.2879992,8.328 49.432,8.328 C49.7040013,8.328 49.9679987,8.45599872 50.224,8.712 C50.224,8.82400056 50.2559996,8.97599904 50.32,9.168 C50.3840003,9.3280008 50.416,9.46399944 50.416,9.576 C50.416,9.64000032 50.3840003,9.74399928 50.32,9.888 C50.2559996,10.0320007 50.224,10.1439996 50.224,10.224 C50.24,10.4640012 50.3759987,10.7519983 50.632,11.088 C50.9520016,11.488002 51.1359997,11.7599993 51.184,11.904 C51.2,11.9520002 51.2159999,12.0479993 51.232,12.192 C51.232,12.3040006 51.2399999,12.3839998 51.256,12.432 C51.272,12.4960003 51.3199996,12.5759995 51.4,12.672 C51.4800004,12.7680005 51.5279999,12.8399998 51.544,12.888 C51.5279999,12.8239997 51.5839993,13.2319956 51.712,14.112 C51.8400006,14.0479997 51.904,13.920001 51.904,13.728 C51.904,13.6479996 51.8880001,13.4960011 51.856,13.272 C51.8079997,13.063999 51.784,12.9120005 51.784,12.816 L51.784,12.696 Z M47.704,18 C48.5840044,18 49.2959972,17.5280047 49.84,16.584 C50.3200024,15.7679959 50.56,14.8720049 50.56,13.896 C50.56,12.9999955 50.352002,12.2400031 49.936,11.616 C49.936,11.5839998 49.928,11.568 49.912,11.568 C49.719999,11.8080012 49.3760024,12.1679976 48.88,12.648 C48.3359972,13.1760026 47.9440012,13.5759986 47.704,13.848 C46.7919954,14.8880052 46.336,15.911995 46.336,16.92 C46.336,17.2080014 46.3519998,17.4239993 46.384,17.568 C46.7520018,17.8560014 47.1919974,18 47.704,18 L47.704,18 Z M54.9679999,21.192 C54.9519999,21.2080001 54.9280001,21.216 54.8959999,21.216 L54.6079999,20.928 C53.823996,19.9999954 53.4319999,18.736008 53.4319999,17.136 C53.4319999,15.1839902 53.7839964,12.6880152 54.4879999,9.648 C55.2720039,6.25598304 56.1839947,3.75200808 57.2239999,2.136 C57.3680007,2.136 57.5679987,2.10400032 57.8239999,2.04 C58.0960013,1.9599996 58.2879994,1.92 58.3999999,1.92 L58.4719999,1.92 C59.0320027,1.92 59.4559985,2.01599904 59.7439999,2.208 C60.1280019,2.43200112 60.3199999,3.11999424 60.3199999,4.272 C60.3199999,5.00800368 60.1920012,5.44799928 59.9359999,5.592 L59.8159999,5.592 C59.223997,5.592 58.7680015,5.78399808 58.4479999,6.168 C57.5039952,7.2880056 56.8000023,9.06398784 56.3359999,11.496 C57.0080033,11.2559988 57.9999934,10.7680037 59.3119999,10.032 C60.528006,9.32799648 61.5439959,8.86400112 62.3599999,8.64 L62.3599999,8.664 C62.3599999,8.68000008 62.3040005,8.74399944 62.1919999,8.856 C60.9119935,9.8160048 60.264,10.4159988 60.2479999,10.656 L60.2479999,10.728 C60.2479999,10.9040009 60.3279991,11.1519984 60.4879999,11.472 C60.6640008,11.8240018 60.7599999,12.0879991 60.7759999,12.264 C60.8080001,12.2319998 59.5120131,13.015992 56.8879999,14.616 C57.7840044,16.1040074 58.4719975,17.047998 58.9519999,17.448 C60.2800066,15.1599886 61.4159952,13.8800014 62.3599999,13.608 L62.3599999,13.656 C62.3599999,13.7040002 62.2640009,13.8399989 62.0719999,14.064 C60.5519923,16.0960102 59.7919999,17.3839973 59.7919999,17.928 C59.7919999,18.2000014 59.9599983,18.5599978 60.2959999,19.008 C60.6320016,19.4400022 60.7999999,19.7999986 60.7999999,20.088 C60.7999999,20.6160026 60.4800031,20.88 59.8399999,20.88 C59.4079978,20.88 59.0560013,20.7680011 58.7839999,20.544 C57.9199956,19.8559966 57.1440034,18.8400067 56.4559999,17.496 C55.9759975,16.5359952 55.6080012,16.0160004 55.3519999,15.936 C54.9999982,16.7680042 54.8239999,17.9599922 54.8239999,19.512 C54.8239999,19.704001 54.8479997,19.9759982 54.8959999,20.328 C54.9440002,20.6800018 54.9679999,20.9359992 54.9679999,21.096 L54.9679999,21.192 Z M65.0159999,19.992 C64.5039974,19.992 64.0240022,19.8480014 63.5759999,19.56 C62.8879965,19.1279978 62.5439999,18.4400047 62.5439999,17.496 C62.5439999,16.3119941 62.8159972,14.7120101 63.3599999,12.696 C62.4799955,12.103997 62.0240001,11.7840002 61.9919999,11.736 C62.0400002,10.935996 62.551995,10.1920034 63.5279999,9.504 C64.4400045,8.84799672 65.3199957,8.52 66.1679999,8.52 C66.6320022,8.52 66.9359992,8.66399856 67.0799999,8.952 L67.1519999,9.432 C67.168,9.5120004 67.263999,9.74399808 67.4399999,10.128 C67.5840006,10.4480016 67.6559999,10.711999 67.6559999,10.92 C67.6399998,11.2240015 67.4640016,11.5439983 67.1279999,11.88 C66.743998,12.2480018 66.5200002,12.5519988 66.4559999,12.792 C64.9359923,14.7280097 64.1759999,16.3119938 64.1759999,17.544 C64.1759999,18.4880047 64.4399973,19.0959986 64.9679999,19.368 C66.9360098,18.1039937 68.0959982,15.5600191 68.4479999,11.736 C68.5760006,10.2799927 68.8799975,9.352002 69.3599999,8.952 L70.2239999,8.88 C70.4800012,8.88 70.7119989,8.92799952 70.9199999,9.024 C71.0320005,9.16800072 71.1919989,9.47199768 71.3999999,9.936 C71.5760008,10.3520021 71.751999,10.6399992 71.9279999,10.8 C71.9119998,11.1040015 71.7520014,11.4079985 71.4479999,11.712 C71.0319978,12.112002 70.7920002,12.3679994 70.7279999,12.48 C70.6159994,12.688001 70.5280002,13.1119968 70.4639999,13.752 C70.4159997,14.344003 70.3040008,14.7679987 70.1279999,15.024 C70.144,15.0880003 70.1519999,15.1599996 70.1519999,15.24 C70.1519999,15.3360005 70.1040004,15.479999 70.0079999,15.672 C70.024,15.7360003 70.0319999,15.8319994 70.0319999,15.96 L70.0079999,16.536 C70.0079999,16.744001 70.0479995,16.9119994 70.1279999,17.04 C71.744008,15.3119914 72.9599958,14.0960035 73.7759999,13.392 C73.6319992,13.6640014 73.0880046,14.4799932 72.1439999,15.84 C72.1439999,16.0640011 72.136,16.1839999 72.1199999,16.2 C71.6559976,16.9360037 71.4239999,17.3119999 71.4239999,17.328 C71.3439995,17.3920003 70.9840031,17.9599946 70.3439999,19.032 C69.9759981,19.624003 69.6400014,19.92 69.3359999,19.92 C68.9839982,19.92 68.6560014,19.7360018 68.3519999,19.368 C68.0639985,19.0159982 67.9040001,18.6640018 67.8719999,18.312 C66.5279932,19.3840054 65.6400021,19.9439998 65.2079999,19.992 L65.0159999,19.992 Z" id="Sengoku" stroke="none" fill="#000000" fill-rule="evenodd"></path>
</svg>
