<svg width="943px" height="260px" viewBox="0 24 943 260" version="1.1" xmlns="http://www.w3.org/2000/svg" xmlns:xlink="http://www.w3.org/1999/xlink">
  <defs></defs>
  <path d="M74.016,250.12 C70.3679818,250.12 67.6800086,250.791993 65.952,252.136 C54.4319424,252.136 46.4640221,253.09599 42.048,255.016 C40.3199914,254.439997 38.5920086,254.152 36.864,254.152 C33.9839856,254.152 29.9520259,255.11199 24.768,257.032 C19.3919731,259.144011 15.6480106,260.2 13.536,260.2 C10.6559856,260.2 7.96801248,258.952012 5.472,256.456 C2.01598272,247.047953 0.288,234.760076 0.288,219.592 C17.3760854,214.023972 27.3599856,210.088012 30.24,207.784 C30.6240019,207.784 30.816,207.975998 30.816,208.36 C30.816,208.552001 30.4320038,209.031996 29.664,209.8 C28.7039952,210.376003 28.224,210.855998 28.224,211.24 C29.5680067,210.855998 31.3919885,209.800009 33.696,208.072 C36.0000115,206.727993 37.9199923,205.768003 39.456,205.192 C39.8400019,205.192 40.032,205.000002 40.032,204.616 C40.032,203.847996 40.127999,203.368001 40.32,203.176 L52.128,195.4 C56.928024,192.135984 60.7679856,189.640009 63.648,187.912 C63.455999,188.680004 62.7840058,189.735993 61.632,191.08 C60.6719952,192.424007 60.192,193.767993 60.192,195.112 L60.192,195.976 C60.192,196.360002 60.4799971,196.552 61.056,196.552 L62.496,196.552 C61.3439942,197.704006 59.2320154,199.431988 56.16,201.736 C53.2799856,203.848011 51.1680067,205.575993 49.824,206.92 L53.28,205.48 C54.8160077,204.903997 55.8719971,204.424002 56.448,204.04 C56.640001,204.04 56.831999,204.135999 57.024,204.328 C57.024,204.520001 56.6400038,205.095995 55.872,206.056 C55.1039962,206.824004 54.72,207.399998 54.72,207.784 C65.0880518,204.711985 69.8880038,203.176 69.12,203.176 C68.7359981,204.136005 67.5840096,205.57599 65.664,207.496 C63.7439904,209.224009 62.784,210.663994 62.784,211.816 C62.784,212.200002 63.0719971,212.871995 63.648,213.832 C56.9279664,218.824025 51.9360163,223.239981 48.672,227.08 C87.8401958,223.239981 114.239932,217.960034 127.872,211.24 L127.584,209.8 C127.584,209.031996 127.775998,207.976007 128.16,206.632 C128.544002,205.095992 128.736,204.040003 128.736,203.464 C128.736,199.815982 124.224045,194.632034 115.2,187.912 C114.623997,187.527998 113.856005,187.240001 112.896,187.048 L110.304,186.184 C108.191989,185.031994 105.216019,183.112013 101.376,180.424 L92.16,173.8 C53.951809,149.223877 32.7360211,125.128118 28.512,101.512 C28.512,100.743996 28.2240029,99.5920077 27.648,98.056 L26.784,94.312 L27.072,82.216 C27.072,67.2399251 33.6959338,54.952048 46.944,45.352 C57.8880547,37.2879597 69.4079395,33.256 81.504,33.256 C95.5200701,33.256 104.735978,36.0399722 109.152,41.608 C117.600042,46.408024 130.463914,61.4798733 147.744,86.824 L151.776,87.976 C151.968001,90.6640134 153.119989,93.2559875 155.232,95.752 C158.112014,99.2080173 159.743998,101.415995 160.128,102.376 L160.128,103.528 C160.128,101.991992 158.016021,105.447958 153.792,113.896 C153.407998,114.664004 153.024002,116.00799 152.64,117.928 L151.776,121.96 C150.623994,124.264012 148.512015,126.951985 145.44,130.024 C141.983983,133.480017 139.776005,135.879993 138.816,137.224 C137.663994,137.416001 136.032011,137.512 133.92,137.512 C128.735974,137.512 123.936022,136.264012 119.52,133.768 C117.791991,127.81597 115.776012,124.648002 113.472,124.264 C110.591986,116.19996 105.216039,106.696055 97.344,95.752 C87.551951,82.3119328 79.3920326,75.592 72.864,75.592 C67.871975,75.592 63.6480173,77.6079798 60.192,81.64 C56.7359827,85.6720202 55.008,90.183975 55.008,95.176 C55.008,99.2080202 56.6399837,106.119951 59.904,115.912 C63.9360202,128.584063 73.3439261,140.199947 88.128,150.76 C91.9680192,153.640014 98.3999549,157.863972 107.424,163.432 C115.872042,168.808027 122.207979,173.031985 126.432,176.104 C143.136084,188.392061 151.488,199.335952 151.488,208.936 C151.488,212.96802 148.416031,220.839941 142.272,232.552 C117.887878,244.45606 98.3040739,250.408 83.52,250.408 L74.016,250.12 Z M61.92,185.608 L62.208,186.184 C62.208,185.991999 61.2480096,186.567993 59.328,187.912 C48.5759462,195.400037 40.3200288,201.447977 34.56,206.056 C36.2880086,202.983985 45.4079174,196.168053 61.92,185.608 L61.92,185.608 Z M298.944,205.768 C298.944,206.344003 299.327996,206.823998 300.096,207.208 C300.672003,207.592002 300.96,207.879999 300.96,208.072 C300.96,208.264001 300.864001,208.455999 300.672,208.648 C255.359773,229.768106 230.400023,241.191991 225.792,242.92 C210.239922,248.296027 201.024014,250.984 198.144,250.984 C188.15995,250.984 181.440017,244.744062 177.984,232.264 C177.984,231.879998 178.079999,231.688 178.272,231.688 L179.712,232.264 C176.831986,227.463976 175.392,221.320037 175.392,213.832 C175.392,208.263972 176.255991,200.680048 177.984,191.08 C180.096011,179.751943 181.247999,172.936012 181.44,170.632 L181.44,170.056 C181.44,169.671998 181.727997,169.288002 182.304,168.904 C182.880003,168.711999 183.168,168.424002 183.168,168.04 L183.168,166.888 C183.168,161.703974 185.087981,157.192019 188.928,153.352 L188.928,149.896 C199.680054,127.239887 208.511965,114.184017 215.424,110.728 C220.032023,108.423988 224.35198,107.272 228.384,107.272 C235.680036,107.272 243.743956,111.495958 252.576,119.944 C263.520055,130.504053 270.431986,136.455993 273.312,137.8 C273.504001,138.376003 273.887997,139.047996 274.464,139.816 C275.040003,140.776005 275.423999,141.543997 275.616,142.12 C274.079992,144.232011 273.312,146.439988 273.312,148.744 C273.312,150.088007 273.695996,152.391984 274.464,155.656 C275.232004,158.920016 275.616,161.607989 275.616,163.72 L275.616,165.448 C275.039997,170.824027 270.624041,175.239983 262.368,178.696 C259.679987,179.848006 256.128022,181.095993 251.712,182.44 C245.951971,184.168009 242.592005,185.223998 241.632,185.608 C228.191933,190.408024 219.648018,194.055988 216,196.552 C215.423997,196.744001 214.560006,197.607992 213.408,199.144 C212.063993,200.680008 210.816006,201.639998 209.664,202.024 C207.74399,202.792004 205.82401,203.176 203.904,203.176 C201.407988,203.176 199.488007,202.696005 198.144,201.736 C198.720003,202.120002 197.952011,200.488018 195.84,196.84 C195.263997,195.879995 194.208008,195.016004 192.672,194.248 C191.135992,193.287995 190.176002,192.616002 189.792,192.232 C187.295988,203.368056 186.048,210.087988 186.048,212.392 C186.048,219.688036 189.215968,223.336 195.552,223.336 C214.944097,223.336 237.695869,215.36808 263.808,199.432 C263.039996,199.047998 261.69601,198.856 259.776,198.856 C257.85599,198.856 254.784021,199.335995 250.56,200.296 C246.143978,201.256005 242.97601,201.736 241.056,201.736 C240.287996,200.967996 239.136008,200.584 237.6,200.584 L230.976,201.16 C235.200021,199.047989 250.079872,194.728033 275.616,188.2 L291.456,184.168 C293.37601,184.168 295.29599,184.455997 297.216,185.032 C296.639997,184.647998 298.847975,188.199963 303.84,195.688 C304.416003,195.111997 302.784019,198.279965 298.944,205.192 L298.944,205.768 Z M237.312,132.328 C230.399965,119.847938 227.423995,113.895997 228.384,114.472 C221.087964,115.432005 214.848026,120.999949 209.664,131.176 C208.127992,134.248015 206.208012,138.567972 203.904,144.136 C201.599988,150.08803 199.968005,154.02399 199.008,155.944 C203.616023,155.175996 209.855961,153.83201 217.728,151.912 L236.448,147.592 C237.408005,144.711986 238.559993,142.31201 239.904,140.392 C237.599988,139.047993 236.448,137.320011 236.448,135.208 C236.448,134.823998 236.639998,134.440002 237.024,134.056 C237.216001,133.671998 237.312,133.288002 237.312,132.904 L237.312,132.328 Z M398.304,239.176 C396.959993,239.176 395.424009,240.615986 393.696,243.496 C379.67993,240.231984 372.672,228.520101 372.672,208.36 C372.672,206.247989 372.863998,202.888023 373.248,198.28 C373.632002,193.095974 375.359985,183.592069 378.432,169.768 C381.120013,157.86394 382.464,148.264036 382.464,140.968 L382.464,138.088 C370.55994,147.496047 361.152035,161.319909 354.24,179.56 C353.471996,181.288009 352.512006,184.263979 351.36,188.488 C350.399995,192.328019 349.440005,195.303989 348.48,197.416 L338.976,218.152 C336.863989,228.13605 334.656012,234.08799 332.352,236.008 C331.007993,236.584003 329.472009,236.872 327.744,236.872 C324.863986,236.872 321.888015,235.720012 318.816,233.416 C318.431998,231.687991 317.376009,229.288015 315.648,226.216 C314.111992,223.143985 313.152002,220.744009 312.768,219.016 C312.383998,216.327987 312.192,214.504005 312.192,213.544 C312.192,208.743976 314.20798,202.600037 318.24,195.112 C322.080019,187.623963 324,181.576023 324,176.968 L324,176.104 C311.327937,166.11995 302.97602,157.672035 298.944,150.76 C310.656059,133.095912 318.431981,122.536017 322.272,119.08 C331.104044,110.823959 339.167964,106.696 346.464,106.696 C347.424005,106.696 348.671992,106.887998 350.208,107.272 C350.015999,107.272 353.663963,111.783955 361.152,120.808 C374.208065,108.90394 383.519972,102.952 389.088,102.952 L391.68,103.24 C393.984012,103.624002 396.671985,104.77599 399.744,106.696 C403.77602,109.576014 406.271995,111.207998 407.232,111.592 C407.808003,113.51201 409.439987,116.391981 412.128,120.232 C414.432012,123.688017 415.679999,126.567988 415.872,128.872 L415.872,130.312 C415.872,129.735997 414.624012,135.687938 412.128,148.168 C404.831964,181.000164 400.992002,200.007974 400.608,205.192 C404.256018,201.543982 409.151969,196.168036 415.296,189.064 L429.984,171.784 C431.328007,169.671989 432.479995,168.616 433.44,168.616 L433.728,168.616 C430.271983,175.336034 424.51204,187.047916 416.448,203.752 C409.151964,218.920076 403.296022,230.727958 398.88,239.176 L398.304,239.176 Z M538.272,173.512 C534.815983,175.43201 529.440036,178.887975 522.144,183.88 C514.07996,189.256027 508.992011,194.247977 506.88,198.856 C505.343992,202.312017 504.576,208.551955 504.576,217.576 C504.576,234.472084 502.56002,245.415975 498.528,250.408 C492.57597,257.704036 480.57609,264.039973 462.528,269.416 C439.103883,276.328035 425.184022,280.935988 420.768,283.24 C420.575999,281.895993 419.712008,278.824024 418.176,274.024 C416.831993,270.183981 416.16,267.112012 416.16,264.808 C416.16,262.311988 416.639995,260.200009 417.6,258.472 C418.560005,256.743991 425.08794,251.176047 437.184,241.768 C443.328031,236.775975 453.215932,228.23206 466.848,216.136 C479.520063,204.999944 489.119967,196.840026 495.648,191.656 C495.840001,187.431979 496.703992,181.480038 498.24,173.8 C496.127989,174.376003 492.09603,176.967977 486.144,181.576 C480.575972,185.60802 475.77602,187.911997 471.744,188.488 L468.864,188.776 C460.79996,188.776 455.328014,186.280025 452.448,181.288 C451.871997,179.943993 451.488001,178.216011 451.296,176.104 C451.296,173.607988 451.104002,171.784006 450.72,170.632 C450.335998,169.479994 449.18401,167.656012 447.264,165.16 C445.727992,163.047989 444.864001,160.840012 444.672,158.536 C444.479999,157.383994 444.384,155.752011 444.384,153.64 C444.384,140.199933 448.703957,126.088074 457.344,111.304 C468.672057,91.911903 483.455909,82.216 501.696,82.216 C504.000012,82.216 505.727994,82.311999 506.88,82.504 C511.680024,83.0800029 523.871902,91.0479232 543.456,106.408 C543.648001,107.176004 544.70399,109.479981 546.624,113.32 C545.279993,115.432011 543.360012,119.847966 540.864,126.568 C538.94399,131.944027 536.736012,135.783988 534.24,138.088 C533.663997,138.664003 532.608008,139.239997 531.072,139.816 L527.904,141.544 C520.799964,146.152023 515.424018,156.615918 511.776,172.936 C517.72803,169.479983 525.503952,164.488033 535.104,157.96 L558.72,142.12 C557.951996,143.080005 554.016036,146.343972 546.912,151.912 C541.727974,156.136021 538.272009,160.26398 536.544,164.296 L538.272,171.784 L538.272,173.512 Z M501.696,110.44 C498.815986,108.327989 496.608008,107.272 495.072,107.272 C488.543967,107.272 481.728036,111.30396 474.624,119.368 C466.175958,128.584046 461.952,139.527937 461.952,152.2 C461.952,153.544007 462.143998,155.943983 462.528,159.4 C475.584065,150.951958 490.943912,135.880108 508.608,114.184 C507.071992,113.991999 504.768015,112.744012 501.696,110.44 L501.696,110.44 Z M441.504,255.016 C453.984062,252.135986 461.567987,250.600001 464.256,250.408 C465.600007,249.447995 467.711986,248.584004 470.592,247.816 C473.280013,246.855995 475.199994,245.992004 476.352,245.224 C484.224039,240.231975 489.215989,228.520092 491.328,210.088 C491.328,209.703998 491.136002,209.512 490.752,209.512 C466.559879,229.672101 450.144043,244.839949 441.504,255.016 L441.504,255.016 Z M659.808,153.352 C662.688014,159.30403 664.128,166.599957 664.128,175.24 C664.128,200.968129 659.040051,220.263936 648.864,233.128 C642.527968,241.576042 630.816085,245.8 613.728,245.8 C599.327928,245.8 586.944052,239.560062 576.576,227.08 C567.935957,216.519947 563.616,206.152051 563.616,195.976 L563.616,189.928 C563.616,189.351997 563.424002,188.392007 563.04,187.048 C562.655998,185.895994 562.464,185.032003 562.464,184.456 L562.464,183.88 C562.464,179.655979 564.959975,171.49606 569.952,159.4 C576.672034,143.079918 584.927951,129.92805 594.72,119.944 C597.600014,118.983995 601.05598,116.584019 605.088,112.744 C608.928019,109.095982 612.287986,106.792005 615.168,105.832 C616.704008,107.368008 607.4881,99.1120902 587.52,81.064 C593.47203,82.2160058 600.191963,85.287975 607.68,90.28 C618.240053,97.1920346 624.47999,101.127995 626.4,102.088 C628.128009,101.319996 629.855991,100.936 631.584,100.936 C634.848016,100.936 638.015985,102.471985 641.088,105.544 C641.088,106.888007 641.471996,108.711988 642.24,111.016 C643.008004,112.93601 643.392,114.567993 643.392,115.912 C643.392,116.680004 643.008004,117.927991 642.24,119.656 C641.471996,121.384009 641.088,122.727995 641.088,123.688 C641.280001,126.568014 642.911985,130.02398 645.984,134.056 C649.824019,138.856024 652.031997,142.119991 652.608,143.848 C652.800001,144.424003 652.991999,145.575991 653.184,147.304 C653.184,148.648007 653.279999,149.607997 653.472,150.184 C653.664001,150.952004 654.239995,151.911994 655.2,153.064 C656.160005,154.216006 656.735999,155.079997 656.928,155.656 C656.735999,154.887996 657.407992,159.783947 658.944,170.344 C660.480008,169.575996 661.248,168.040012 661.248,165.736 C661.248,164.775995 661.056002,162.952013 660.672,160.264 C660.095997,157.767988 659.808,155.944006 659.808,154.792 L659.808,153.352 Z M610.848,217 C621.408053,217 629.951967,211.336057 636.48,200.008 C642.240029,190.215951 645.12,179.464059 645.12,167.752 C645.12,156.999946 642.624025,147.880037 637.632,140.392 C637.632,140.007998 637.536001,139.816 637.344,139.816 C635.039988,142.696014 630.91203,147.015971 624.96,152.776 C618.431967,159.112032 613.728014,163.911984 610.848,167.176 C599.903945,179.656062 594.432,191.94394 594.432,204.04 C594.432,207.496017 594.623998,210.087991 595.008,211.816 C599.424022,215.272017 604.703969,217 610.848,217 L610.848,217 Z M707.616,255.304 C707.423999,255.496001 707.136002,255.592 706.752,255.592 L703.296,252.136 C693.887953,240.999944 689.184,225.832096 689.184,206.632 C689.184,183.207883 693.407958,153.256182 701.856,116.776 C711.264047,76.0717965 722.207938,46.024097 734.688,26.632 C736.416009,26.632 738.815985,26.2480038 741.888,25.48 C745.152016,24.5199952 747.455993,24.04 748.8,24.04 L749.664,24.04 C756.384034,24.04 761.471983,25.1919885 764.928,27.496 C769.536023,30.1840134 771.84,38.4399309 771.84,52.264 C771.84,61.0960442 770.304015,66.3759914 767.232,68.104 L765.792,68.104 C758.687964,68.104 753.216019,70.407977 749.376,75.016 C738.047943,88.4560672 729.600028,109.767854 724.032,138.952 C732.09604,136.071986 743.999921,130.216044 759.744,121.384 C774.336073,112.935958 786.527951,107.368013 796.32,104.68 L796.32,104.968 C796.32,105.160001 795.648007,105.927993 794.304,107.272 C778.943923,118.792058 771.168001,125.991986 770.976,128.872 L770.976,129.736 C770.976,131.848011 771.93599,134.823981 773.856,138.664 C775.968011,142.888021 777.119999,146.055989 777.312,148.168 C777.696002,147.783998 762.144157,157.191904 730.656,176.392 C741.408054,194.248089 749.663971,205.575976 755.424,210.376 C771.36008,182.919863 784.991943,167.560016 796.32,164.296 L796.32,164.872 C796.32,165.448003 795.168012,167.079987 792.864,169.768 C774.623909,194.152122 765.504,209.607967 765.504,216.136 C765.504,219.400016 767.51998,223.719973 771.552,229.096 C775.58402,234.280026 777.6,238.599983 777.6,242.056 C777.6,248.392032 773.760038,251.56 766.08,251.56 C760.895974,251.56 756.672016,250.216013 753.408,247.528 C743.039948,239.271959 733.728041,227.080081 725.472,210.952 C719.711971,199.431942 715.296015,193.192005 712.224,192.232 C707.999979,202.21605 705.888,216.519907 705.888,235.144 C705.888,237.448012 706.175997,240.711979 706.752,244.936 C707.328003,249.160021 707.616,252.23199 707.616,254.152 L707.616,255.304 Z M837.792,240.904 C831.647969,240.904 825.888027,239.176017 820.512,235.72 C812.255959,230.535974 808.128,222.280057 808.128,210.952 C808.128,196.743929 811.391967,177.544121 817.92,153.352 C807.359947,146.247964 801.888002,142.408003 801.504,141.832 C802.080003,132.231952 808.223941,123.304041 819.936,115.048 C830.880055,107.175961 841.439949,103.24 851.616,103.24 C857.184028,103.24 860.831991,104.967983 862.56,108.424 L863.424,114.184 C863.616001,115.144005 864.767989,117.927977 866.88,122.536 C868.608009,126.376019 869.472,129.543988 869.472,132.04 C869.279999,135.688018 867.16802,139.52798 863.136,143.56 C858.527977,147.976022 855.840004,151.623986 855.072,154.504 C836.831909,177.736116 827.712,196.743926 827.712,211.528 C827.712,222.856057 830.879968,230.151984 837.216,233.416 C860.832118,218.247924 874.751979,187.720229 878.976,141.832 C880.512008,124.359913 884.159971,113.224024 889.92,108.424 L900.288,107.56 C903.360015,107.56 906.143988,108.135994 908.64,109.288 C909.984007,111.016009 911.903988,114.663972 914.4,120.232 C916.512011,125.224025 918.623989,128.67999 920.736,130.6 C920.543999,134.248018 918.624018,137.895982 914.976,141.544 C909.983975,146.344024 907.104004,149.415993 906.336,150.76 C904.991993,153.256012 903.936004,158.343962 903.168,166.024 C902.591997,173.128036 901.248011,178.215985 899.136,181.288 C899.328001,182.056004 899.424,182.919995 899.424,183.88 C899.424,185.032006 898.848006,186.759988 897.696,189.064 C897.888001,189.832004 897.984,190.983992 897.984,192.52 L897.696,199.432 C897.696,201.928012 898.175995,203.943992 899.136,205.48 C918.528097,184.743896 933.119951,170.152042 942.912,161.704 C941.183991,164.968016 934.656057,174.759918 923.328,191.08 C923.328,193.768013 923.232001,195.207999 923.04,195.4 C917.471972,204.232044 914.688,208.743999 914.688,208.936 C913.727995,209.704004 909.408038,216.519936 901.728,229.384 C897.311978,236.488036 893.280018,240.04 889.632,240.04 C885.407979,240.04 881.472018,237.832022 877.824,233.416 C874.367983,229.191979 872.448002,224.968021 872.064,220.744 C855.935919,233.608064 845.280026,240.327997 840.096,240.904 L837.792,240.904 Z" id="Sengoku" stroke="none" fill="#000000" fill-rule="evenodd"></path>
</svg>
